<?xml version="1.0" encoding="iso-8859-1"?>
<!-- Generator: Adobe Illustrator 19.0.0, SVG Export Plug-In . SVG Version: 6.00 Build 0)  -->
<svg version="1.1" id="Capa_1" xmlns="http://www.w3.org/2000/svg" xmlns:xlink="http://www.w3.org/1999/xlink" x="0px" y="0px"
	 viewBox="0 0 512 512" style="enable-background:new 0 0 512 512;" xml:space="preserve">
<polygon style="fill:#EFEDEE;" points="334.915,361.197 177.085,361.197 147.465,429.017 177.085,504.5 241.283,491.121 
	259.375,504.5 334.915,504.5 369.455,438.927 "/>
<path style="fill:#F98084;" d="M145.837,361.197c0,0-7.799,2.924-18.314,10.693c-21.764,16.075-55.171,57.787-55.171,132.61h52.046
	l7.5-6.044l7.5,6.044h37.686V361.197H145.837z"/>
<path style="fill:#DC5A64;" d="M152.522,371.891c10.515-7.77,18.314-10.693,18.314-10.693h-25c0,0-7.799,2.924-18.314,10.693
	c-21.763,16.074-55.17,57.786-55.17,132.609h25C97.352,429.677,130.759,387.965,152.522,371.891z"/>
<path style="fill:#F98084;" d="M380.101,501.205l7.5,3.295h52.046c0-57.026-19.405-94.8-38.27-116.668l-26.801,1.213l-3.201-25.41
	c-3.26-1.705-5.213-2.438-5.213-2.438h-31.247V504.5h37.687L380.101,501.205z"/>
<path style="fill:#3A484A;" d="M401.376,387.832c-5.888-6.825-11.724-12.118-16.9-15.941c-5.262-3.885-9.841-6.561-13.101-8.255
	c-3.261-1.705-5.213-2.438-5.213-2.438C281.604,464.495,177.085,504.5,177.085,504.5h82.292
	C296.65,482.316,352.326,443.724,401.376,387.832z"/>
<g>
	<circle style="fill:#E3B098;" cx="63.059" cy="228.59" r="42.544"/>
	<circle style="fill:#E3B098;" cx="448.939" cy="228.59" r="42.544"/>
	<path style="fill:#E3B098;" d="M434.613,123.784v101.053c-2.364,35.576-19.014,68.07-41.894,94.84
		c-16.082,18.816-34.474,41.261-59.538,47.729c-28.806,7.433-49.354-18.097-77.034-18.097s-48.228,25.53-77.034,18.097
		c-25.065-6.468-43.457-28.913-59.538-47.729c-22.88-26.77-39.529-59.264-41.894-94.84V123.784H434.613z"/>
</g>
<path style="fill:#F98084;" d="M365.956,278.214h-25.714c-4.142,0-7.5-3.358-7.5-7.5s3.358-7.5,7.5-7.5h25.714
	c4.142,0,7.5,3.358,7.5,7.5S370.098,278.214,365.956,278.214z"/>
<path style="fill:#DC5A64;" d="M255.852,341.689c25.288,0,44.06,23.324,70.376,16.533c22.899-5.909,39.701-26.414,54.393-43.604
	c20.902-24.456,36.113-54.142,38.273-86.644v-69.912l29.389,5.632c0.429,4.969,0.659,49.632,0.659,54.705
	c0,100.778-86.383,182.475-192.941,182.475S63.058,319.176,63.058,218.399c0-5.073,0.229-49.736,0.659-54.705l29.389-5.632v69.912
	c2.16,32.501,17.371,62.187,38.273,86.644c14.692,17.19,31.494,37.695,54.393,43.604c26.316,6.791,45.088-16.533,70.376-16.533
	H255.852z"/>
<path style="fill:#3A484A;" d="M255.852,149.616c104.969,0,193.089,36.427,193.089,36.427s41.688-20.633,41.688-72.875
	s-55.697-7.29-101.864-43.738S311.551,7.5,255.999,7.5s-86.597,25.481-132.765,61.93S21.371,60.925,21.371,113.167
	s41.688,72.875,41.688,72.875s88.12-36.427,193.089-36.427h-0.297V149.616z"/>
<path style="fill:#313D40;" d="M53.371,103.168c0-7.984,1.306-13.688,3.675-17.77c-20.774-0.27-35.675,0.749-35.675,27.77
	c0,52.242,41.688,72.875,41.688,72.875s11.336-4.686,30.717-10.696C86.774,171.368,53.371,149.935,53.371,103.168z"/>
<path style="fill:#EFEDEE;" d="M274.582,81.906l18.66-18.66c5.091-5.09,5.091-13.343,0-18.434c-5.09-5.091-13.344-5.091-18.434,0
	l-18.66,18.66l-18.66-18.66c-5.09-5.091-13.344-5.091-18.434,0c-5.09,5.09-5.09,13.343,0,18.434l18.66,18.66l-18.66,18.66
	c-5.09,5.09-5.09,13.343,0,18.434c2.545,2.545,5.881,3.818,9.217,3.818s6.672-1.273,9.217-3.818l18.66-18.66l18.66,18.66
	c2.545,2.545,5.881,3.818,9.217,3.818s6.672-1.273,9.217-3.818c5.091-5.09,5.091-13.343,0-18.434L274.582,81.906z"/>
<path style="fill:#3A484A;" d="M116.083,211.315c0-33.026,97.781-33.026,97.781,0s-21.889,59.798-48.891,59.798
	S116.083,244.34,116.083,211.315z"/>
<path d="M353.099,250.464c4.142,0,7.5-3.358,7.5-7.5v-18.88c0-4.142-3.358-7.5-7.5-7.5s-7.5,3.358-7.5,7.5v18.88
	C345.599,247.106,348.957,250.464,353.099,250.464z"/>
<path d="M278.302,256.317c-3.12-2.726-7.857-2.408-10.583,0.711c-2.844,3.253-7.116,5.12-11.72,5.12
	c-4.604,0-8.876-1.866-11.72-5.12c-2.726-3.118-7.464-3.438-10.583-0.711c-3.119,2.726-3.437,7.464-0.711,10.583
	c5.692,6.513,14.081,10.248,23.014,10.248c8.933,0,17.321-3.735,23.014-10.248C281.739,263.782,281.42,259.043,278.302,256.317z"/>
<path d="M304.406,54.029c0.003-5.295-1.939-10.599-5.861-14.52c-7.918-7.917-21.133-7.912-29.041-0.001l-13.357,13.356
	c0,0-13.347-13.347-13.356-13.356c-7.913-7.913-21.137-7.907-29.042,0c-8.006,8.006-8.006,21.034,0,29.04l13.357,13.357
	c0,0-13.349,13.349-13.357,13.357c-7.913,7.913-7.904,21.136-0.001,29.039c7.918,7.917,21.13,7.915,29.042,0.001l13.356-13.356
	c0,0,13.348,13.348,13.355,13.355c7.917,7.917,21.133,7.913,29.041,0.002c7.918-7.92,7.914-21.128,0.001-29.041l-13.357-13.357
	c0,0,13.346-13.346,13.356-13.356C302.437,64.656,304.402,59.347,304.406,54.029z M287.938,57.942l-18.66,18.66
	c-2.929,2.929-2.929,7.678,0,10.606c0,0,18.616,18.617,18.66,18.661c2.139,2.139,2.132,5.694-0.001,7.827
	c-2.136,2.137-5.695,2.131-7.826-0.001l-18.66-18.66c-1.464-1.464-3.384-2.197-5.303-2.197c-1.919,0-3.839,0.732-5.303,2.197
	c0,0-18.646,18.645-18.661,18.66c-2.14,2.14-5.69,2.137-7.827,0c-2.139-2.139-2.136-5.691,0-7.827l18.66-18.66
	c2.929-2.929,2.929-7.678,0-10.606l-18.66-18.66c-2.157-2.158-2.157-5.669,0.001-7.827c2.136-2.137,5.696-2.132,7.827,0l18.66,18.66
	c2.929,2.929,7.677,2.929,10.606,0c0,0,18.621-18.62,18.661-18.66c2.139-2.139,5.691-2.136,7.827,0.001
	C290.078,52.257,290.075,55.804,287.938,57.942z"/>
<path d="M467.472,182.115c13.363-11.71,30.655-33.677,30.655-68.948c0-12.245-2.856-21.009-8.733-26.793
	c-9.024-8.883-22.924-8.663-37.637-8.43c-18.428,0.292-39.317,0.622-58.352-14.405c-3.443-2.718-8.267-3.013-11.206,0.709
	c-2.914,3.692-1.495,8.372,1.916,11.068c23.222,18.333,47.985,17.94,67.879,17.626c11.981-0.19,22.33-0.354,26.877,4.122
	c2.824,2.78,4.256,8.198,4.256,16.104c0,39.733-26.046,59.183-34.761,64.578c-17.514-6.78-97.539-35.598-192.37-35.629
	c-94.827,0.031-174.851,28.849-192.364,35.628c-8.743-5.413-34.763-24.864-34.763-64.577c0-7.906,1.433-13.324,4.257-16.104
	c4.546-4.475,14.894-4.313,26.876-4.122c26.03,0.416,49.963-3.476,70.82-19.948C175.033,38.071,204.24,15,255.999,15
	c41.573,0,68.53,14.5,103.731,41.258c3.297,2.507,8.003,1.866,10.509-1.432c2.507-3.297,1.866-8.003-1.432-10.509
	C331.883,16.249,301.588,0,255.999,0c-56.969,0-89.479,25.68-134.475,61.224c-18.495,14.603-38.377,17.084-61.284,16.72
	c-14.715-0.234-28.612-0.453-37.636,8.43c-5.877,5.785-8.734,14.549-8.734,26.793c0,35.271,17.293,57.238,30.656,68.948
	c-18.443,7.382-31.511,25.423-31.511,46.471c0,27.594,22.449,50.044,50.044,50.044c0.93,0,1.865-0.036,2.801-0.089
	c11.766,33.328,33.034,62.561,60.737,84.812c-1.181,0.808-2.359,1.639-3.53,2.505c-13.656,10.087-58.215,49.895-58.215,138.642
	c0,4.142,3.358,7.5,7.5,7.5h367.295c4.142,0,7.5-3.358,7.5-7.5c0-65.334-25.115-104.205-40.092-121.567
	c-5.738-6.652-12.005-12.557-18.124-17.076c-1.173-0.866-2.351-1.697-3.53-2.503c27.704-22.25,48.972-51.484,60.738-84.812
	c0.936,0.053,1.871,0.089,2.801,0.089c4.178,0,8.235-0.522,12.117-1.491v9.5c0,4.142,3.358,7.5,7.5,7.5c4.143,0,7.5-3.358,7.5-7.5
	v-16.026c13.781-8.923,22.927-24.422,22.927-42.027C498.984,207.538,485.916,189.497,467.472,182.115z M256.541,334.203
	c-0.08-0.001-0.16-0.002-0.239-0.003c-11.997-0.127-23.314,4.753-34.02,9.644c-10.881,4.971-22.451,10.26-34.636,7.116
	c-19.752-5.097-35.244-23.257-48.912-39.278c-16.794-19.686-30.701-42.785-36.025-68.688c3.788-0.441,7.751-0.958,11.86-1.558
	c9.278,22.023,28.381,37.178,50.405,37.178c31.094,0,56.391-30.19,56.391-67.298c0-1.393-0.125-2.756-0.361-4.089
	c23.479-13.417,42.208-30.076,55.791-49.618c54.83,2.512,103.644,14.269,134.599,23.551v46.563
	c-1.923,27.992-14.532,56.351-36.474,82.024c-14.724,17.227-33.106,42.217-58.389,42.217c-9.045,0-17.676-3.943-26.813-8.117
	C279.253,339.064,268.228,334.389,256.541,334.203z M206.363,211.314c0,28.837-18.568,52.298-41.391,52.298
	s-41.391-23.461-41.391-52.298c0-9.684,18.181-17.269,41.391-17.269S206.363,201.631,206.363,211.314z M258.39,157.13
	c-11.575,14.188-26.499,26.548-44.536,36.899c-3.145-3.147-7.224-5.894-12.189-8.13c-9.814-4.419-22.845-6.854-36.692-6.854
	s-26.877,2.434-36.692,6.854c-12.703,5.721-19.699,14.747-19.699,25.416c0,5.371,0.545,10.59,1.546,15.601
	c-3.271,0.457-6.441,0.858-9.49,1.208c-0.01-0.134-0.023-0.269-0.033-0.403v-46.575c34.796-10.439,92.172-24.009,155.392-24.029
	C256.796,157.116,257.592,157.125,258.39,157.13z M70.815,227.613c-0.321-5.851-0.256-11.711-0.224-17.568
	c0.028-5.189,0.073-12.06,0.134-18.93c3.354-1.258,8.383-3.077,14.879-5.235v42.094c0,0.529,0.062,1.058,0.102,1.585
	c-5.77,0.445-10.749,0.701-14.704,0.847C70.936,229.476,70.866,228.546,70.815,227.613z M61.278,263.586
	c-18.499-0.93-33.264-16.273-33.264-35c0-16.799,11.882-30.875,27.684-34.266c0,6.221-0.102,12.442-0.121,18.662
	C55.524,229.99,57.032,247.081,61.278,263.586z M131.979,377.922c2.462-1.819,4.946-3.489,7.42-4.991
	c9.528,6.468,19.647,12.141,30.184,16.921V497h-30.186v-40.148c0-4.142-3.358-7.5-7.5-7.5c-4.142,0-7.5,3.358-7.5,7.5V497H79.991
	C81.515,455.588,95.764,404.671,131.979,377.922z M286.026,496.691c14.17-9.298,27.991-19.123,41.388-29.505V497h-41.85
	C285.719,496.899,285.871,496.793,286.026,496.691z M387.6,497v-40.148c0-4.142-3.357-7.5-7.5-7.5c-4.142,0-7.5,3.358-7.5,7.5V497
	h-30.187v-41.819c12.508-10.332,25.24-21.691,37.838-34.098c0.095-0.094,20.542-21.346,20.813-21.644
	c12.857,17.288,29.406,48.786,30.963,97.561H387.6z M391.276,387.893c0.555,0.61-16.541,17.515-18.441,19.416
	c-13.556,13.564-42.63,38.487-42.644,38.498c-22.955,18.856-47.445,35.918-72.917,51.193h-46.57c0.091-0.048,0.188-0.101,0.28-0.148
	c6.392-3.332,12.683-6.846,18.911-10.474c4.952-2.885,9.859-5.848,14.716-8.889c3.51-2.199,4.572-6.828,2.373-10.338
	c-2.167-3.458-6.882-4.541-10.339-2.374c-12.831,8.043-26.059,15.311-39.57,22.143c-4.133,2.09-8.229,4.238-12.443,6.163
	c-0.017,0.008-0.033,0.015-0.049,0.022v-97.163c16.366,5.931,33.353,9.744,50.769,11.428c0.121,0.012,21.072,1.52,31.306,0.733
	c19.164-0.936,37.777-4.392,55.647-10.348c-0.093,0.09-0.188,0.179-0.28,0.269c-18.785,18.241-39.085,34.957-60.438,50.102
	c-3.378,2.396-4.174,7.078-1.778,10.457c2.358,3.328,7.128,4.146,10.46,1.782c29.144-20.67,56.29-44.226,80.658-70.363
	c0.028-0.03,0.048-0.064,0.076-0.094c2.547-2.733,5.071-5.483,7.548-8.264c4.802-2.715,9.506-5.634,14.044-8.712
	c2.467,1.496,4.951,3.166,7.424,4.991C383.748,380.677,387.571,384.067,391.276,387.893z M270.696,392.824
	c-6.485,0.482-13.001,0.648-19.501,0.491C163.9,391.21,91.414,331.904,74.358,253.73c-0.013-0.057-1.125-5.523-1.571-8.218
	c-0.009-0.052-0.017-0.105-0.026-0.157c4.245-0.167,9.273-0.444,14.947-0.894c5.016,25.951,17.952,51.608,37.968,75.028
	c16.016,18.74,33.247,39.615,58.22,45.994c15.754,4.064,30.419-1.511,44.617-7.997c9.298-4.248,18.081-8.26,27.458-8.294
	c9.432,0.034,18.213,4.046,27.51,8.294c10.196,4.658,20.738,9.475,33.048,9.474c30.142-0.001,51.97-26.617,69.792-47.471
	c24.123-28.224,37.974-59.698,40.055-91.019c0.011-0.166,0.017-0.332,0.017-0.498v-42.086c6.497,2.156,11.525,3.973,14.88,5.253
	c0.001,0.2,0.003,0.4,0.005,0.6c0.086,9.87,0.139,19.653,0.156,24.314c0.046,12.589-1.085,25.204-3.759,37.515
	c-0.01,0.046-0.021,0.092-0.031,0.138C421.246,328.919,353.538,386.666,270.696,392.824z M450.72,263.586
	c3.835-14.883,5.719-30.278,5.719-45.642c0-0.043,0-0.083,0-0.129c-0.006-3.176-0.053-13.038-0.139-23.495
	c15.801,3.391,27.684,17.467,27.684,34.266C483.984,247.313,469.219,262.656,450.72,263.586z"/>
<g>
</g>
<g>
</g>
<g>
</g>
<g>
</g>
<g>
</g>
<g>
</g>
<g>
</g>
<g>
</g>
<g>
</g>
<g>
</g>
<g>
</g>
<g>
</g>
<g>
</g>
<g>
</g>
<g>
</g>
</svg>
