<?xml version="1.0" standalone="no"?>
<!DOCTYPE svg PUBLIC "-//W3C//DTD SVG 20010904//EN"
 "http://www.w3.org/TR/2001/REC-SVG-20010904/DTD/svg10.dtd">
<svg version="1.0" xmlns="http://www.w3.org/2000/svg"
 width="700.000000pt" height="700.000000pt" viewBox="0 0 700.000000 700.000000"
 preserveAspectRatio="xMidYMid meet">
<metadata>
Created by potrace 1.11, written by Peter Selinger 2001-2013
</metadata>
<g transform="translate(0.000000,700.000000) scale(0.100000,-0.100000)"
fill="#000000" stroke="none">
<path d="M3265 6989 c-70 -7 -89 -10 -195 -29 -70 -13 -102 -22 -225 -61 -278
-87 -586 -268 -970 -569 -333 -261 -395 -299 -580 -349 -117 -32 -230 -43
-470 -46 -233 -3 -292 -7 -355 -27 -137 -43 -221 -130 -261 -273 -15 -54 -20
-298 -7 -370 31 -175 52 -243 119 -380 54 -112 123 -208 216 -304 34 -35 60
-68 57 -72 -3 -5 -28 -20 -57 -35 -128 -64 -248 -197 -306 -339 -39 -96 -52
-172 -50 -275 7 -262 153 -490 385 -600 81 -39 154 -58 254 -66 41 -3 78 -9
81 -13 3 -3 21 -44 39 -91 71 -180 210 -425 338 -595 108 -142 330 -370 435
-447 16 -12 13 -17 -35 -53 -164 -124 -331 -318 -456 -530 -57 -97 -132 -252
-125 -259 4 -3 1 -6 -5 -6 -7 0 -12 -6 -12 -13 0 -8 -11 -41 -25 -74 -23 -59
-82 -259 -91 -312 -3 -14 -9 -39 -14 -56 -4 -16 -12 -52 -16 -80 -4 -27 -9
-57 -10 -65 -2 -8 -6 -37 -9 -65 -3 -27 -8 -62 -11 -77 -15 -90 -19 -366 -6
-400 25 -62 -176 -58 2603 -58 2530 0 2532 0 2565 20 21 14 35 32 40 53 7 33
7 214 -1 271 -2 17 -7 63 -10 101 -34 377 -164 771 -359 1085 -100 162 -282
367 -409 461 l-59 43 26 19 c30 22 152 133 210 193 243 248 436 541 556 844
18 47 36 88 39 91 3 4 39 9 79 13 40 3 84 9 98 12 16 4 24 2 25 -7 0 -8 2 -47
3 -88 2 -69 5 -76 34 -103 44 -38 91 -38 134 1 l33 29 3 134 c3 134 4 135 30
150 35 21 135 123 168 171 38 57 74 140 95 221 26 99 21 274 -11 366 -61 177
-176 316 -328 395 -29 15 -54 30 -56 34 -3 4 21 34 53 66 163 170 261 348 317
582 22 89 27 133 28 253 1 173 -6 223 -43 304 -28 61 -93 135 -142 160 -38 19
-116 43 -169 52 -25 3 -166 8 -315 10 -148 1 -280 5 -291 7 -12 3 -39 8 -60
11 -129 21 -254 72 -368 150 -83 58 -126 67 -165 38 l-28 -20 -26 21 c-14 12
-51 42 -82 66 -38 31 -52 48 -45 55 15 15 12 79 -6 104 -25 35 -368 282 -392
282 -6 0 -12 4 -14 8 -4 10 -157 96 -260 145 -174 84 -376 146 -562 172 -23 3
-57 8 -76 11 -57 9 -419 11 -495 3z"/>
</g>
</svg>
